<?xml version="1.0" standalone="no"?>
<!DOCTYPE svg PUBLIC "-//W3C//DTD SVG 1.1//EN"
"http://www.w3.org/Graphics/SVG/1.1/DTD/svg11.dtd">
<!-- Creator: fig2dev Version 3.2 Patchlevel 5e -->
<!-- CreationDate: Mon Aug 11 20:51:55 2014 -->
<!-- Magnification: 1.000 -->
<svg	xmlns="http://www.w3.org/2000/svg"
	xmlns:xlink="http://www.w3.org/1999/xlink"
	width="6.5in" height="3.7in"
	viewBox="288 288 7759 4443">
<g style="stroke-width:.025in; fill:none">
<!-- Line -->
<polyline points="675,1950
1725,1950
1725,3225
2310,3225
" style="stroke:#0000ff;stroke-width:15;
stroke-linejoin:miter; stroke-linecap:butt;
"/>
<!-- Arrowhead on XXXpoint 1725 3225 - 2580 3225-->
<polygon points="2308 3285
2548 3225
2308 3165
2308 3285

" style="stroke:#0000ff;stroke-width:15;stroke-miterlimit:8;
fill:#0000ff;"/>
<!-- Line -->
<polyline points="2550,2625
2100,2625
2100,1125
6300,1125
6300,2550
" style="stroke:#0000ff;stroke-width:30;
stroke-linejoin:miter; stroke-linecap:butt;
"/>
<!-- Line -->
<polyline points="4875,900
6450,900
" style="stroke:#000000;stroke-width:7;
stroke-linejoin:miter; stroke-linecap:butt;
"/>
<!-- Line -->
<polyline points="5625,3000
6375,3000
" style="stroke:#000000;stroke-width:7;
stroke-linejoin:miter; stroke-linecap:butt;
"/>
<!-- Line -->
<polyline points="6450,1350
7125,1350
" style="stroke:#000000;stroke-width:7;
stroke-linejoin:miter; stroke-linecap:butt;
"/>
<!-- Line -->
<polyline points="6450,3900
7125,3900
" style="stroke:#000000;stroke-width:7;
stroke-linejoin:miter; stroke-linecap:butt;
"/>
<!-- Line: box -->
<rect x="300" y="900" width="1215" height="900" rx="0" 
style="stroke:#000000;stroke-width:7;
stroke-linejoin:miter; stroke-linecap:butt;
fill:#e7e7e7;
"/>
<!-- Line -->
<polyline points="1500,1350
1950,1350
" style="stroke:#000000;stroke-width:7;
stroke-linejoin:miter; stroke-linecap:butt;
"/>
<!-- Line -->
<polyline points="1950,375
1950,3900
" style="stroke:#000000;stroke-width:7;
stroke-linejoin:miter; stroke-linecap:butt;
"/>
<!-- Line -->
<polyline points="1950,3000
2625,3000
" style="stroke:#000000;stroke-width:7;
stroke-linejoin:miter; stroke-linecap:butt;
"/>
<!-- Line -->
<polyline points="1950,900
3300,900
" style="stroke:#000000;stroke-width:7;
stroke-linejoin:miter; stroke-linecap:butt;
"/>
<!-- Line -->
<polyline points="6450,300
6450,4200
" style="stroke:#000000;stroke-width:7;
stroke-linejoin:miter; stroke-linecap:butt;
"/>
<!-- Line -->
<polygon points="3825,375
3860,368
3890,361
3911,353
3923,347
3930,341
3931,335
3931,330
3931,325
3933,319
3940,314
3954,309
3977,305
4010,301
4050,300
4084,301
4116,303
4144,306
4168,310
4187,314
4202,318
4214,323
4223,327
4231,331
4240,336
4249,340
4261,345
4277,350
4297,355
4322,360
4353,365
4388,370
4425,375
4466,379
4502,381
4531,381
4553,380
4569,377
4580,373
4588,368
4594,363
4599,357
4606,353
4616,350
4629,349
4647,350
4670,355
4696,363
4725,375
4751,390
4773,406
4789,421
4800,434
4806,445
4808,454
4808,462
4806,469
4805,476
4804,485
4806,495
4811,509
4820,526
4834,547
4853,572
4875,600
4899,628
4921,652
4941,671
4959,686
4973,695
4986,701
4996,704
5006,706
5016,708
5026,712
5037,718
5048,729
5062,744
5075,766
5089,793
5100,825
5107,854
5110,882
5112,906
5112,926
5112,942
5111,955
5110,966
5108,974
5106,981
5104,989
5101,997
5097,1006
5091,1019
5083,1034
5073,1053
5060,1075
5044,1100
5025,1125
5003,1149
4982,1169
4961,1185
4944,1197
4930,1205
4918,1210
4909,1212
4901,1213
4894,1212
4886,1212
4878,1212
4867,1214
4854,1217
4836,1223
4814,1232
4788,1244
4758,1259
4725,1275
4692,1291
4662,1307
4637,1320
4617,1331
4602,1340
4591,1347
4584,1353
4579,1358
4575,1363
4571,1367
4566,1371
4559,1376
4548,1382
4533,1389
4513,1397
4488,1406
4458,1416
4425,1425
4388,1433
4356,1439
4329,1443
4309,1445
4295,1446
4286,1446
4279,1445
4275,1444
4271,1442
4264,1441
4255,1439
4241,1437
4221,1435
4194,1432
4162,1429
4125,1425
4088,1420
4056,1414
4030,1409
4010,1404
3997,1399
3989,1395
3984,1391
3981,1388
3978,1384
3973,1380
3964,1376
3950,1371
3930,1366
3901,1361
3866,1355
3825,1350
3788,1346
3753,1344
3722,1343
3697,1344
3677,1346
3661,1349
3649,1353
3640,1358
3631,1363
3623,1367
3614,1371
3602,1374
3587,1376
3568,1376
3544,1374
3516,1369
3484,1361
3450,1350
3418,1336
3390,1322
3366,1308
3347,1296
3332,1285
3320,1276
3312,1268
3305,1261
3300,1255
3295,1248
3289,1241
3283,1232
3276,1221
3267,1207
3257,1190
3246,1171
3235,1149
3225,1125
3218,1095
3216,1070
3218,1051
3224,1039
3232,1032
3242,1029
3252,1028
3262,1026
3273,1023
3282,1015
3291,1002
3298,981
3302,952
3304,918
3303,886
3300,856
3296,831
3290,809
3283,792
3276,779
3268,768
3261,759
3253,749
3246,738
3240,726
3234,710
3229,691
3227,669
3226,644
3229,618
3236,593
3245,573
3254,561
3262,555
3270,553
3276,554
3283,558
3290,561
3298,563
3307,563
3320,560
3335,552
3354,540
3375,525
3396,509
3413,494
3426,482
3434,472
3438,464
3440,458
3439,453
3440,448
3442,442
3447,435
3458,426
3475,416
3499,404
3529,393
3558,385
3585,379
3608,375
3627,373
3642,373
3654,374
3663,377
3671,379
3679,382
3689,384
3701,386
3717,387
3737,386
3763,384
3793,380
3825,375
" style="stroke:#000000;stroke-width:7;
stroke-linejoin:bevel; stroke-linecap:butt;
fill:#ffffff;
"/>
<!-- Text -->
<text xml:space="preserve" x="525" y="750" fill="#000000"  font-family="Times" font-style="normal" font-weight="normal" font-size="240" text-anchor="start">NAS</text>
<!-- Text -->
<text xml:space="preserve" x="2625" y="1950" fill="#000000"  font-family="Times" font-style="normal" font-weight="normal" font-size="240" text-anchor="start">Proxy</text>
<!-- Text -->
<text xml:space="preserve" x="4800" y="1950" fill="#000000"  font-family="Times" font-style="normal" font-weight="normal" font-size="240" text-anchor="start">Two</text>
<!-- Text -->
<text xml:space="preserve" x="7125" y="600" fill="#000000"  font-family="Times" font-style="normal" font-weight="normal" font-size="240" text-anchor="start">One</text>
<!-- Text -->
<text xml:space="preserve" x="7125" y="3000" fill="#000000"  font-family="Times" font-style="normal" font-weight="normal" font-size="240" text-anchor="start">Three</text>
<!-- Line -->
<polyline points="300,999
1510,999
" style="stroke:#000000;stroke-width:7;
stroke-linejoin:miter; stroke-linecap:butt;
"/>
<!-- Line -->
<polyline points="300,990
1510,990
" style="stroke:#f7f7f7;stroke-width:7;
stroke-linejoin:miter; stroke-linecap:butt;
"/>
<!-- Line -->
<polyline points="300,1007
1510,1007
" style="stroke:#c7c7c7;stroke-width:7;
stroke-linejoin:miter; stroke-linecap:butt;
"/>
<!-- Line -->
<polyline points="300,1652
1510,1652
" style="stroke:#000000;stroke-width:7;
stroke-linejoin:miter; stroke-linecap:butt;
"/>
<!-- Line -->
<polyline points="300,1642
1510,1642
" style="stroke:#f7f7f7;stroke-width:7;
stroke-linejoin:miter; stroke-linecap:butt;
"/>
<!-- Line -->
<polyline points="300,1659
1510,1659
" style="stroke:#c7c7c7;stroke-width:7;
stroke-linejoin:miter; stroke-linecap:butt;
"/>
<!-- Line -->
<polyline points="601,995
601,1652
" style="stroke:#000000;stroke-width:7;
stroke-linejoin:miter; stroke-linecap:butt;
"/>
<!-- Line -->
<polyline points="610,995
610,1652
" style="stroke:#f7f7f7;stroke-width:7;
stroke-linejoin:miter; stroke-linecap:butt;
"/>
<!-- Line -->
<polyline points="593,995
593,1652
" style="stroke:#868686;stroke-width:7;
stroke-linejoin:miter; stroke-linecap:butt;
"/>
<!-- Line -->
<polyline points="531,995
531,1652
" style="stroke:#000000;stroke-width:7;
stroke-linejoin:miter; stroke-linecap:butt;
"/>
<!-- Line -->
<polyline points="540,995
540,1652
" style="stroke:#f7f7f7;stroke-width:7;
stroke-linejoin:miter; stroke-linecap:butt;
"/>
<!-- Line -->
<polyline points="523,995
523,1652
" style="stroke:#868686;stroke-width:7;
stroke-linejoin:miter; stroke-linecap:butt;
"/>
<!-- Line -->
<polyline points="829,995
829,1652
" style="stroke:#000000;stroke-width:7;
stroke-linejoin:miter; stroke-linecap:butt;
"/>
<!-- Line -->
<polyline points="839,995
839,1652
" style="stroke:#f7f7f7;stroke-width:7;
stroke-linejoin:miter; stroke-linecap:butt;
"/>
<!-- Line -->
<polyline points="822,995
822,1652
" style="stroke:#868686;stroke-width:7;
stroke-linejoin:miter; stroke-linecap:butt;
"/>
<!-- Line -->
<polyline points="760,995
760,1652
" style="stroke:#000000;stroke-width:7;
stroke-linejoin:miter; stroke-linecap:butt;
"/>
<!-- Line -->
<polyline points="769,995
769,1652
" style="stroke:#f7f7f7;stroke-width:7;
stroke-linejoin:miter; stroke-linecap:butt;
"/>
<!-- Line -->
<polyline points="752,995
752,1652
" style="stroke:#868686;stroke-width:7;
stroke-linejoin:miter; stroke-linecap:butt;
"/>
<!-- Line -->
<polyline points="1051,995
1051,1652
" style="stroke:#000000;stroke-width:7;
stroke-linejoin:miter; stroke-linecap:butt;
"/>
<!-- Line -->
<polyline points="1061,995
1061,1652
" style="stroke:#f7f7f7;stroke-width:7;
stroke-linejoin:miter; stroke-linecap:butt;
"/>
<!-- Line -->
<polyline points="1043,995
1043,1652
" style="stroke:#868686;stroke-width:7;
stroke-linejoin:miter; stroke-linecap:butt;
"/>
<!-- Line -->
<polyline points="981,995
981,1652
" style="stroke:#000000;stroke-width:7;
stroke-linejoin:miter; stroke-linecap:butt;
"/>
<!-- Line -->
<polyline points="990,995
990,1652
" style="stroke:#f7f7f7;stroke-width:7;
stroke-linejoin:miter; stroke-linecap:butt;
"/>
<!-- Line -->
<polyline points="974,995
974,1652
" style="stroke:#868686;stroke-width:7;
stroke-linejoin:miter; stroke-linecap:butt;
"/>
<!-- Line -->
<polyline points="1276,995
1276,1652
" style="stroke:#000000;stroke-width:7;
stroke-linejoin:miter; stroke-linecap:butt;
"/>
<!-- Line -->
<polyline points="1285,995
1285,1652
" style="stroke:#f7f7f7;stroke-width:7;
stroke-linejoin:miter; stroke-linecap:butt;
"/>
<!-- Line -->
<polyline points="1269,995
1269,1652
" style="stroke:#868686;stroke-width:7;
stroke-linejoin:miter; stroke-linecap:butt;
"/>
<!-- Line -->
<polyline points="1206,995
1206,1652
" style="stroke:#000000;stroke-width:7;
stroke-linejoin:miter; stroke-linecap:butt;
"/>
<!-- Line -->
<polyline points="1215,995
1215,1652
" style="stroke:#f7f7f7;stroke-width:7;
stroke-linejoin:miter; stroke-linecap:butt;
"/>
<!-- Line -->
<polyline points="1198,995
1198,1652
" style="stroke:#868686;stroke-width:7;
stroke-linejoin:miter; stroke-linecap:butt;
"/>
<!-- Line -->
<polyline points="1481,995
1481,1652
" style="stroke:#000000;stroke-width:7;
stroke-linejoin:miter; stroke-linecap:butt;
"/>
<!-- Line -->
<polyline points="1489,995
1489,1652
" style="stroke:#f7f7f7;stroke-width:7;
stroke-linejoin:miter; stroke-linecap:butt;
"/>
<!-- Line -->
<polyline points="1473,995
1473,1652
" style="stroke:#868686;stroke-width:7;
stroke-linejoin:miter; stroke-linecap:butt;
"/>
<!-- Line -->
<polyline points="1411,995
1411,1652
" style="stroke:#000000;stroke-width:7;
stroke-linejoin:miter; stroke-linecap:butt;
"/>
<!-- Line -->
<polyline points="1420,995
1420,1652
" style="stroke:#f7f7f7;stroke-width:7;
stroke-linejoin:miter; stroke-linecap:butt;
"/>
<!-- Line -->
<polyline points="1402,995
1402,1652
" style="stroke:#868686;stroke-width:7;
stroke-linejoin:miter; stroke-linecap:butt;
"/>
<!-- Line -->
<polyline points="831,995
831,1652
" style="stroke:#000000;stroke-width:7;
stroke-linejoin:miter; stroke-linecap:butt;
"/>
<!-- Line: box -->
<rect x="2625" y="2100" width="900" height="1569" rx="0" 
style="stroke:#000000;stroke-width:7;
stroke-linejoin:miter; stroke-linecap:round;
fill:#c0c0c0;
"/>
<!-- Line: box -->
<rect x="4800" y="2100" width="900" height="1569" rx="0" 
style="stroke:#000000;stroke-width:7;
stroke-linejoin:miter; stroke-linecap:round;
fill:#c0c0c0;
"/>
<!-- Line: box -->
<rect x="7125" y="750" width="900" height="1569" rx="0" 
style="stroke:#000000;stroke-width:7;
stroke-linejoin:miter; stroke-linecap:round;
fill:#c0c0c0;
"/>
<!-- Line: box -->
<rect x="7125" y="3150" width="900" height="1569" rx="0" 
style="stroke:#000000;stroke-width:7;
stroke-linejoin:miter; stroke-linecap:round;
fill:#c0c0c0;
"/>
<!-- Text -->
<text xml:space="preserve" x="3600" y="975" fill="#000000"  font-family="Times" font-style="normal" font-weight="normal" font-size="240" text-anchor="start">Internet</text>
<!-- Line: box -->
<rect x="2725" y="2701" width="700" height="33" rx="0" 
style="stroke:#000000;stroke-width:0;
stroke-linejoin:miter; stroke-linecap:round;
fill:#e0e0e0;
"/>
<!-- Line: box -->
<rect x="2725" y="2668" width="700" height="33" rx="0" 
style="stroke:#000000;stroke-width:0;
stroke-linejoin:miter; stroke-linecap:round;
fill:#404040;
"/>
<!-- Line: box -->
<rect x="2725" y="2801" width="700" height="33" rx="0" 
style="stroke:#000000;stroke-width:0;
stroke-linejoin:miter; stroke-linecap:round;
fill:#e0e0e0;
"/>
<!-- Line: box -->
<rect x="2725" y="2768" width="700" height="33" rx="0" 
style="stroke:#000000;stroke-width:0;
stroke-linejoin:miter; stroke-linecap:round;
fill:#404040;
"/>
<!-- Line: box -->
<rect x="2725" y="2901" width="700" height="34" rx="0" 
style="stroke:#000000;stroke-width:0;
stroke-linejoin:miter; stroke-linecap:round;
fill:#e0e0e0;
"/>
<!-- Line: box -->
<rect x="2725" y="2868" width="700" height="33" rx="0" 
style="stroke:#000000;stroke-width:0;
stroke-linejoin:miter; stroke-linecap:round;
fill:#404040;
"/>
<!-- Line: box -->
<rect x="2725" y="3001" width="700" height="34" rx="0" 
style="stroke:#000000;stroke-width:0;
stroke-linejoin:miter; stroke-linecap:round;
fill:#e0e0e0;
"/>
<!-- Line: box -->
<rect x="2725" y="2968" width="700" height="33" rx="0" 
style="stroke:#000000;stroke-width:0;
stroke-linejoin:miter; stroke-linecap:round;
fill:#404040;
"/>
<!-- Line: box -->
<rect x="2725" y="3101" width="700" height="35" rx="0" 
style="stroke:#000000;stroke-width:0;
stroke-linejoin:miter; stroke-linecap:round;
fill:#e0e0e0;
"/>
<!-- Line: box -->
<rect x="2725" y="3068" width="700" height="33" rx="0" 
style="stroke:#000000;stroke-width:0;
stroke-linejoin:miter; stroke-linecap:round;
fill:#404040;
"/>
<!-- Line: box -->
<rect x="2725" y="3203" width="700" height="33" rx="0" 
style="stroke:#000000;stroke-width:0;
stroke-linejoin:miter; stroke-linecap:round;
fill:#e0e0e0;
"/>
<!-- Line: box -->
<rect x="2725" y="3168" width="700" height="35" rx="0" 
style="stroke:#000000;stroke-width:0;
stroke-linejoin:miter; stroke-linecap:round;
fill:#404040;
"/>
<!-- Line: box -->
<rect x="2725" y="3301" width="700" height="35" rx="0" 
style="stroke:#000000;stroke-width:0;
stroke-linejoin:miter; stroke-linecap:round;
fill:#e0e0e0;
"/>
<!-- Line: box -->
<rect x="2725" y="3269" width="700" height="32" rx="0" 
style="stroke:#000000;stroke-width:0;
stroke-linejoin:miter; stroke-linecap:round;
fill:#404040;
"/>
<!-- Line: box -->
<rect x="2725" y="3402" width="700" height="34" rx="0" 
style="stroke:#000000;stroke-width:0;
stroke-linejoin:miter; stroke-linecap:round;
fill:#e0e0e0;
"/>
<!-- Line: box -->
<rect x="2725" y="3369" width="700" height="33" rx="0" 
style="stroke:#000000;stroke-width:0;
stroke-linejoin:miter; stroke-linecap:round;
fill:#404040;
"/>
<!-- Line: box -->
<rect x="2725" y="2468" width="700" height="32" rx="0" 
style="stroke:#000000;stroke-width:0;
stroke-linejoin:miter; stroke-linecap:round;
fill:#e0e0e0;
"/>
<!-- Line: box -->
<rect x="2725" y="2433" width="700" height="35" rx="0" 
style="stroke:#000000;stroke-width:0;
stroke-linejoin:miter; stroke-linecap:round;
fill:#404040;
"/>
<!-- Line: box -->
<rect x="2725" y="2367" width="700" height="33" rx="0" 
style="stroke:#000000;stroke-width:0;
stroke-linejoin:miter; stroke-linecap:round;
fill:#e0e0e0;
"/>
<!-- Line: box -->
<rect x="2725" y="2333" width="700" height="34" rx="0" 
style="stroke:#000000;stroke-width:0;
stroke-linejoin:miter; stroke-linecap:round;
fill:#404040;
"/>
<!-- Line: box -->
<rect x="2725" y="2267" width="700" height="33" rx="0" 
style="stroke:#000000;stroke-width:0;
stroke-linejoin:miter; stroke-linecap:round;
fill:#e0e0e0;
"/>
<!-- Line: box -->
<rect x="2725" y="2233" width="700" height="34" rx="0" 
style="stroke:#000000;stroke-width:0;
stroke-linejoin:miter; stroke-linecap:round;
fill:#404040;
"/>
<!-- Line: box -->
<rect x="2625" y="3536" width="900" height="133" rx="0" 
style="stroke:#000000;stroke-width:7;
stroke-linejoin:miter; stroke-linecap:round;
fill:#404040;
"/>
<!-- Line -->
<polyline points="2625,2566
3525,2566
" style="stroke:#000000;stroke-width:7;
stroke-linejoin:miter; stroke-linecap:round;
fill:#c0c0c0;
"/>
<!-- Line: box -->
<rect x="4900" y="2701" width="700" height="33" rx="0" 
style="stroke:#000000;stroke-width:0;
stroke-linejoin:miter; stroke-linecap:round;
fill:#e0e0e0;
"/>
<!-- Line: box -->
<rect x="4900" y="2668" width="700" height="33" rx="0" 
style="stroke:#000000;stroke-width:0;
stroke-linejoin:miter; stroke-linecap:round;
fill:#404040;
"/>
<!-- Line: box -->
<rect x="4900" y="2801" width="700" height="33" rx="0" 
style="stroke:#000000;stroke-width:0;
stroke-linejoin:miter; stroke-linecap:round;
fill:#e0e0e0;
"/>
<!-- Line: box -->
<rect x="4900" y="2768" width="700" height="33" rx="0" 
style="stroke:#000000;stroke-width:0;
stroke-linejoin:miter; stroke-linecap:round;
fill:#404040;
"/>
<!-- Line: box -->
<rect x="4900" y="2901" width="700" height="34" rx="0" 
style="stroke:#000000;stroke-width:0;
stroke-linejoin:miter; stroke-linecap:round;
fill:#e0e0e0;
"/>
<!-- Line: box -->
<rect x="4900" y="2868" width="700" height="33" rx="0" 
style="stroke:#000000;stroke-width:0;
stroke-linejoin:miter; stroke-linecap:round;
fill:#404040;
"/>
<!-- Line: box -->
<rect x="4900" y="3001" width="700" height="34" rx="0" 
style="stroke:#000000;stroke-width:0;
stroke-linejoin:miter; stroke-linecap:round;
fill:#e0e0e0;
"/>
<!-- Line: box -->
<rect x="4900" y="2968" width="700" height="33" rx="0" 
style="stroke:#000000;stroke-width:0;
stroke-linejoin:miter; stroke-linecap:round;
fill:#404040;
"/>
<!-- Line: box -->
<rect x="4900" y="3101" width="700" height="35" rx="0" 
style="stroke:#000000;stroke-width:0;
stroke-linejoin:miter; stroke-linecap:round;
fill:#e0e0e0;
"/>
<!-- Line: box -->
<rect x="4900" y="3068" width="700" height="33" rx="0" 
style="stroke:#000000;stroke-width:0;
stroke-linejoin:miter; stroke-linecap:round;
fill:#404040;
"/>
<!-- Line: box -->
<rect x="4900" y="3203" width="700" height="33" rx="0" 
style="stroke:#000000;stroke-width:0;
stroke-linejoin:miter; stroke-linecap:round;
fill:#e0e0e0;
"/>
<!-- Line: box -->
<rect x="4900" y="3168" width="700" height="35" rx="0" 
style="stroke:#000000;stroke-width:0;
stroke-linejoin:miter; stroke-linecap:round;
fill:#404040;
"/>
<!-- Line: box -->
<rect x="4900" y="3301" width="700" height="35" rx="0" 
style="stroke:#000000;stroke-width:0;
stroke-linejoin:miter; stroke-linecap:round;
fill:#e0e0e0;
"/>
<!-- Line: box -->
<rect x="4900" y="3269" width="700" height="32" rx="0" 
style="stroke:#000000;stroke-width:0;
stroke-linejoin:miter; stroke-linecap:round;
fill:#404040;
"/>
<!-- Line: box -->
<rect x="4900" y="3402" width="700" height="34" rx="0" 
style="stroke:#000000;stroke-width:0;
stroke-linejoin:miter; stroke-linecap:round;
fill:#e0e0e0;
"/>
<!-- Line: box -->
<rect x="4900" y="3369" width="700" height="33" rx="0" 
style="stroke:#000000;stroke-width:0;
stroke-linejoin:miter; stroke-linecap:round;
fill:#404040;
"/>
<!-- Line: box -->
<rect x="4900" y="2468" width="700" height="32" rx="0" 
style="stroke:#000000;stroke-width:0;
stroke-linejoin:miter; stroke-linecap:round;
fill:#e0e0e0;
"/>
<!-- Line: box -->
<rect x="4900" y="2433" width="700" height="35" rx="0" 
style="stroke:#000000;stroke-width:0;
stroke-linejoin:miter; stroke-linecap:round;
fill:#404040;
"/>
<!-- Line: box -->
<rect x="4900" y="2367" width="700" height="33" rx="0" 
style="stroke:#000000;stroke-width:0;
stroke-linejoin:miter; stroke-linecap:round;
fill:#e0e0e0;
"/>
<!-- Line: box -->
<rect x="4900" y="2333" width="700" height="34" rx="0" 
style="stroke:#000000;stroke-width:0;
stroke-linejoin:miter; stroke-linecap:round;
fill:#404040;
"/>
<!-- Line: box -->
<rect x="4900" y="2267" width="700" height="33" rx="0" 
style="stroke:#000000;stroke-width:0;
stroke-linejoin:miter; stroke-linecap:round;
fill:#e0e0e0;
"/>
<!-- Line: box -->
<rect x="4900" y="2233" width="700" height="34" rx="0" 
style="stroke:#000000;stroke-width:0;
stroke-linejoin:miter; stroke-linecap:round;
fill:#404040;
"/>
<!-- Line: box -->
<rect x="4800" y="3536" width="900" height="133" rx="0" 
style="stroke:#000000;stroke-width:7;
stroke-linejoin:miter; stroke-linecap:round;
fill:#404040;
"/>
<!-- Line -->
<polyline points="4800,2566
5700,2566
" style="stroke:#000000;stroke-width:7;
stroke-linejoin:miter; stroke-linecap:round;
fill:#c0c0c0;
"/>
<!-- Line: box -->
<rect x="7225" y="1351" width="700" height="33" rx="0" 
style="stroke:#000000;stroke-width:0;
stroke-linejoin:miter; stroke-linecap:round;
fill:#e0e0e0;
"/>
<!-- Line: box -->
<rect x="7225" y="1318" width="700" height="33" rx="0" 
style="stroke:#000000;stroke-width:0;
stroke-linejoin:miter; stroke-linecap:round;
fill:#404040;
"/>
<!-- Line: box -->
<rect x="7225" y="1451" width="700" height="33" rx="0" 
style="stroke:#000000;stroke-width:0;
stroke-linejoin:miter; stroke-linecap:round;
fill:#e0e0e0;
"/>
<!-- Line: box -->
<rect x="7225" y="1418" width="700" height="33" rx="0" 
style="stroke:#000000;stroke-width:0;
stroke-linejoin:miter; stroke-linecap:round;
fill:#404040;
"/>
<!-- Line: box -->
<rect x="7225" y="1551" width="700" height="34" rx="0" 
style="stroke:#000000;stroke-width:0;
stroke-linejoin:miter; stroke-linecap:round;
fill:#e0e0e0;
"/>
<!-- Line: box -->
<rect x="7225" y="1518" width="700" height="33" rx="0" 
style="stroke:#000000;stroke-width:0;
stroke-linejoin:miter; stroke-linecap:round;
fill:#404040;
"/>
<!-- Line: box -->
<rect x="7225" y="1651" width="700" height="34" rx="0" 
style="stroke:#000000;stroke-width:0;
stroke-linejoin:miter; stroke-linecap:round;
fill:#e0e0e0;
"/>
<!-- Line: box -->
<rect x="7225" y="1618" width="700" height="33" rx="0" 
style="stroke:#000000;stroke-width:0;
stroke-linejoin:miter; stroke-linecap:round;
fill:#404040;
"/>
<!-- Line: box -->
<rect x="7225" y="1751" width="700" height="35" rx="0" 
style="stroke:#000000;stroke-width:0;
stroke-linejoin:miter; stroke-linecap:round;
fill:#e0e0e0;
"/>
<!-- Line: box -->
<rect x="7225" y="1718" width="700" height="33" rx="0" 
style="stroke:#000000;stroke-width:0;
stroke-linejoin:miter; stroke-linecap:round;
fill:#404040;
"/>
<!-- Line: box -->
<rect x="7225" y="1853" width="700" height="33" rx="0" 
style="stroke:#000000;stroke-width:0;
stroke-linejoin:miter; stroke-linecap:round;
fill:#e0e0e0;
"/>
<!-- Line: box -->
<rect x="7225" y="1818" width="700" height="35" rx="0" 
style="stroke:#000000;stroke-width:0;
stroke-linejoin:miter; stroke-linecap:round;
fill:#404040;
"/>
<!-- Line: box -->
<rect x="7225" y="1951" width="700" height="35" rx="0" 
style="stroke:#000000;stroke-width:0;
stroke-linejoin:miter; stroke-linecap:round;
fill:#e0e0e0;
"/>
<!-- Line: box -->
<rect x="7225" y="1919" width="700" height="32" rx="0" 
style="stroke:#000000;stroke-width:0;
stroke-linejoin:miter; stroke-linecap:round;
fill:#404040;
"/>
<!-- Line: box -->
<rect x="7225" y="2052" width="700" height="34" rx="0" 
style="stroke:#000000;stroke-width:0;
stroke-linejoin:miter; stroke-linecap:round;
fill:#e0e0e0;
"/>
<!-- Line: box -->
<rect x="7225" y="2019" width="700" height="33" rx="0" 
style="stroke:#000000;stroke-width:0;
stroke-linejoin:miter; stroke-linecap:round;
fill:#404040;
"/>
<!-- Line: box -->
<rect x="7225" y="1118" width="700" height="32" rx="0" 
style="stroke:#000000;stroke-width:0;
stroke-linejoin:miter; stroke-linecap:round;
fill:#e0e0e0;
"/>
<!-- Line: box -->
<rect x="7225" y="1083" width="700" height="35" rx="0" 
style="stroke:#000000;stroke-width:0;
stroke-linejoin:miter; stroke-linecap:round;
fill:#404040;
"/>
<!-- Line: box -->
<rect x="7225" y="1017" width="700" height="33" rx="0" 
style="stroke:#000000;stroke-width:0;
stroke-linejoin:miter; stroke-linecap:round;
fill:#e0e0e0;
"/>
<!-- Line: box -->
<rect x="7225" y="983" width="700" height="34" rx="0" 
style="stroke:#000000;stroke-width:0;
stroke-linejoin:miter; stroke-linecap:round;
fill:#404040;
"/>
<!-- Line: box -->
<rect x="7225" y="917" width="700" height="33" rx="0" 
style="stroke:#000000;stroke-width:0;
stroke-linejoin:miter; stroke-linecap:round;
fill:#e0e0e0;
"/>
<!-- Line: box -->
<rect x="7225" y="883" width="700" height="34" rx="0" 
style="stroke:#000000;stroke-width:0;
stroke-linejoin:miter; stroke-linecap:round;
fill:#404040;
"/>
<!-- Line: box -->
<rect x="7125" y="2186" width="900" height="133" rx="0" 
style="stroke:#000000;stroke-width:7;
stroke-linejoin:miter; stroke-linecap:round;
fill:#404040;
"/>
<!-- Line -->
<polyline points="7125,1216
8025,1216
" style="stroke:#000000;stroke-width:7;
stroke-linejoin:miter; stroke-linecap:round;
fill:#c0c0c0;
"/>
<!-- Line: box -->
<rect x="7225" y="3751" width="700" height="33" rx="0" 
style="stroke:#000000;stroke-width:0;
stroke-linejoin:miter; stroke-linecap:round;
fill:#e0e0e0;
"/>
<!-- Line: box -->
<rect x="7225" y="3718" width="700" height="33" rx="0" 
style="stroke:#000000;stroke-width:0;
stroke-linejoin:miter; stroke-linecap:round;
fill:#404040;
"/>
<!-- Line: box -->
<rect x="7225" y="3851" width="700" height="33" rx="0" 
style="stroke:#000000;stroke-width:0;
stroke-linejoin:miter; stroke-linecap:round;
fill:#e0e0e0;
"/>
<!-- Line: box -->
<rect x="7225" y="3818" width="700" height="33" rx="0" 
style="stroke:#000000;stroke-width:0;
stroke-linejoin:miter; stroke-linecap:round;
fill:#404040;
"/>
<!-- Line: box -->
<rect x="7225" y="3951" width="700" height="34" rx="0" 
style="stroke:#000000;stroke-width:0;
stroke-linejoin:miter; stroke-linecap:round;
fill:#e0e0e0;
"/>
<!-- Line: box -->
<rect x="7225" y="3918" width="700" height="33" rx="0" 
style="stroke:#000000;stroke-width:0;
stroke-linejoin:miter; stroke-linecap:round;
fill:#404040;
"/>
<!-- Line: box -->
<rect x="7225" y="4051" width="700" height="34" rx="0" 
style="stroke:#000000;stroke-width:0;
stroke-linejoin:miter; stroke-linecap:round;
fill:#e0e0e0;
"/>
<!-- Line: box -->
<rect x="7225" y="4018" width="700" height="33" rx="0" 
style="stroke:#000000;stroke-width:0;
stroke-linejoin:miter; stroke-linecap:round;
fill:#404040;
"/>
<!-- Line: box -->
<rect x="7225" y="4151" width="700" height="35" rx="0" 
style="stroke:#000000;stroke-width:0;
stroke-linejoin:miter; stroke-linecap:round;
fill:#e0e0e0;
"/>
<!-- Line: box -->
<rect x="7225" y="4118" width="700" height="33" rx="0" 
style="stroke:#000000;stroke-width:0;
stroke-linejoin:miter; stroke-linecap:round;
fill:#404040;
"/>
<!-- Line: box -->
<rect x="7225" y="4253" width="700" height="33" rx="0" 
style="stroke:#000000;stroke-width:0;
stroke-linejoin:miter; stroke-linecap:round;
fill:#e0e0e0;
"/>
<!-- Line: box -->
<rect x="7225" y="4218" width="700" height="35" rx="0" 
style="stroke:#000000;stroke-width:0;
stroke-linejoin:miter; stroke-linecap:round;
fill:#404040;
"/>
<!-- Line: box -->
<rect x="7225" y="4351" width="700" height="35" rx="0" 
style="stroke:#000000;stroke-width:0;
stroke-linejoin:miter; stroke-linecap:round;
fill:#e0e0e0;
"/>
<!-- Line: box -->
<rect x="7225" y="4319" width="700" height="32" rx="0" 
style="stroke:#000000;stroke-width:0;
stroke-linejoin:miter; stroke-linecap:round;
fill:#404040;
"/>
<!-- Line: box -->
<rect x="7225" y="4452" width="700" height="34" rx="0" 
style="stroke:#000000;stroke-width:0;
stroke-linejoin:miter; stroke-linecap:round;
fill:#e0e0e0;
"/>
<!-- Line: box -->
<rect x="7225" y="4419" width="700" height="33" rx="0" 
style="stroke:#000000;stroke-width:0;
stroke-linejoin:miter; stroke-linecap:round;
fill:#404040;
"/>
<!-- Line: box -->
<rect x="7225" y="3518" width="700" height="32" rx="0" 
style="stroke:#000000;stroke-width:0;
stroke-linejoin:miter; stroke-linecap:round;
fill:#e0e0e0;
"/>
<!-- Line: box -->
<rect x="7225" y="3483" width="700" height="35" rx="0" 
style="stroke:#000000;stroke-width:0;
stroke-linejoin:miter; stroke-linecap:round;
fill:#404040;
"/>
<!-- Line: box -->
<rect x="7225" y="3417" width="700" height="33" rx="0" 
style="stroke:#000000;stroke-width:0;
stroke-linejoin:miter; stroke-linecap:round;
fill:#e0e0e0;
"/>
<!-- Line: box -->
<rect x="7225" y="3383" width="700" height="34" rx="0" 
style="stroke:#000000;stroke-width:0;
stroke-linejoin:miter; stroke-linecap:round;
fill:#404040;
"/>
<!-- Line: box -->
<rect x="7225" y="3317" width="700" height="33" rx="0" 
style="stroke:#000000;stroke-width:0;
stroke-linejoin:miter; stroke-linecap:round;
fill:#e0e0e0;
"/>
<!-- Line: box -->
<rect x="7225" y="3283" width="700" height="34" rx="0" 
style="stroke:#000000;stroke-width:0;
stroke-linejoin:miter; stroke-linecap:round;
fill:#404040;
"/>
<!-- Line: box -->
<rect x="7125" y="4586" width="900" height="133" rx="0" 
style="stroke:#000000;stroke-width:7;
stroke-linejoin:miter; stroke-linecap:round;
fill:#404040;
"/>
<!-- Line -->
<polyline points="7125,3616
8025,3616
" style="stroke:#000000;stroke-width:7;
stroke-linejoin:miter; stroke-linecap:round;
fill:#c0c0c0;
"/>
<!-- Line -->
<polyline points="345,1170
345,1260
438,1260
" style="stroke:#868686;stroke-width:7;
stroke-linejoin:miter; stroke-linecap:butt;
fill:#c7c7c7;
"/>
<!-- Line -->
<polyline points="340,1170
435,1170
435,1259
" style="stroke:#f7f7f7;stroke-width:7;
stroke-linejoin:miter; stroke-linecap:butt;
fill:#c7c7c7;
"/>
<!-- Line -->
<polyline points="349,1185
430,1186
" style="stroke:#f7f7f7;stroke-width:7;
stroke-linejoin:round; stroke-linecap:butt;
fill:#000000;
"/>
<!-- Line -->
<polyline points="349,1222
430,1222
" style="stroke:#868686;stroke-width:7;
stroke-linejoin:round; stroke-linecap:butt;
fill:#000000;
"/>
<!-- Line -->
<polyline points="2100,2625
2100,2039
" style="stroke:#0000ff;stroke-width:15;
stroke-linejoin:miter; stroke-linecap:butt;
"/>
<!-- Arrowhead on XXXpoint 2100 2625 - 2100 1770-->
<polygon points="2160 2042
2100 1802
2040 2042
2160 2042

" style="stroke:#0000ff;stroke-width:15;stroke-miterlimit:8;
fill:#0000ff;"/>
<!-- Line -->
<polyline points="5700,1125
6810,1125
" style="stroke:#0000ff;stroke-width:15;
stroke-linejoin:miter; stroke-linecap:butt;
"/>
<!-- Arrowhead on XXXpoint 5700 1125 - 7080 1125-->
<polygon points="6808 1185
7048 1125
6808 1065
6808 1185

" style="stroke:#0000ff;stroke-width:15;stroke-miterlimit:8;
fill:#0000ff;"/>
<!-- Line -->
<polyline points="6300,2550
6300,3750
6735,3750
" style="stroke:#0000ff;stroke-width:15;
stroke-linejoin:miter; stroke-linecap:butt;
"/>
<!-- Arrowhead on XXXpoint 6300 3750 - 7005 3750-->
<polygon points="6733 3810
6973 3750
6733 3690
6733 3810

" style="stroke:#0000ff;stroke-width:15;stroke-miterlimit:8;
fill:#0000ff;"/>
<!-- Line -->
<polyline points="6300,2550
6014,2550
" style="stroke:#0000ff;stroke-width:15;
stroke-linejoin:miter; stroke-linecap:butt;
"/>
<!-- Arrowhead on XXXpoint 6300 2550 - 5745 2550-->
<polygon points="6017 2490
5777 2550
6017 2610
6017 2490

" style="stroke:#0000ff;stroke-width:15;stroke-miterlimit:8;
fill:#0000ff;"/>
<!-- Line: box -->
<rect x="345" y="1193" width="81" height="21" rx="0" 
style="stroke:#000000;stroke-width:7;
stroke-linejoin:miter; stroke-linecap:butt;
fill:#000000;
"/>
</g>
</svg>
